<svg xmlns="http://www.w3.org/2000/svg" width="800" height="340" viewBox="0 0 800 340">
  <style>text { font-family: -apple-system, BlinkMacSystemFont, 'Segoe UI', Roboto, sans-serif; }</style>
  <rect width="800" height="340" fill="#0f172a" rx="12"/>
  <text x="400" y="28" text-anchor="middle" fill="#94a3b8" font-size="11" font-weight="500">DATA SOVEREIGNTY — $0 LOCAL AI</text>
  <rect x="40" y="44" width="500" height="250" rx="14" fill="#0a1a0a" stroke="#22c55e" stroke-width="1" stroke-dasharray="6 3"/>
  <text x="60" y="66" fill="#4ade80" font-size="11" font-weight="600">LOCAL (on-premise)</text>
  <rect x="60" y="80" width="140" height="56" rx="8" fill="#0f2b1a" stroke="#22c55e" stroke-width="0.8"/>
  <text x="130" y="104" text-anchor="middle" fill="#86efac" font-size="12" font-weight="600">Qwen 7B</text>
  <text x="130" y="122" text-anchor="middle" fill="#4a7c5a" font-size="10">LLM · GPU</text>
  <rect x="220" y="80" width="140" height="56" rx="8" fill="#0f2b1a" stroke="#22c55e" stroke-width="0.8"/>
  <text x="290" y="104" text-anchor="middle" fill="#86efac" font-size="12" font-weight="600">e5-large</text>
  <text x="290" y="122" text-anchor="middle" fill="#4a7c5a" font-size="10">Embedding · GPU</text>
  <rect x="380" y="80" width="150" height="56" rx="8" fill="#0f2b1a" stroke="#22c55e" stroke-width="0.8"/>
  <text x="455" y="104" text-anchor="middle" fill="#86efac" font-size="12" font-weight="600">RandomForest</text>
  <text x="455" y="122" text-anchor="middle" fill="#4a7c5a" font-size="10">ML + SHAP · CPU</text>
  <rect x="60" y="156" width="300" height="56" rx="8" fill="#0f2b1a" stroke="#22c55e" stroke-width="0.8"/>
  <text x="210" y="180" text-anchor="middle" fill="#86efac" font-size="12" font-weight="600">Oracle AI Database 26ai</text>
  <text x="210" y="198" text-anchor="middle" fill="#4a7c5a" font-size="10">Vector + BM25 · Docker</text>
  <rect x="380" y="156" width="150" height="56" rx="8" fill="#1a0f0f" stroke="#ef4444" stroke-width="0.8"/>
  <text x="455" y="178" text-anchor="middle" fill="#fca5a5" font-size="11" font-weight="600">Data export</text>
  <text x="455" y="196" text-anchor="middle" fill="#dc2626" font-size="14" font-weight="700">BLOCKED</text>
  <rect x="60" y="230" width="470" height="32" rx="6" fill="#0a2a0a" stroke="#22c55e" stroke-width="0.5"/>
  <text x="295" y="251" text-anchor="middle" fill="#4ade80" font-size="12" font-weight="600">Prediction API cost: $0 · Fully local operation possible</text>
  <rect x="590" y="44" width="180" height="250" rx="14" fill="#1a1a2e" stroke="#3b82f6" stroke-width="1" stroke-dasharray="6 3"/>
  <text x="610" y="66" fill="#60a5fa" font-size="11" font-weight="600">CLOUD</text>
  <rect x="610" y="80" width="140" height="56" rx="8" fill="#1e3a5f" stroke="#3b82f6" stroke-width="0.8"/>
  <text x="680" y="104" text-anchor="middle" fill="#93c5fd" font-size="12" font-weight="600">GPT-4o Vision</text>
  <text x="680" y="122" text-anchor="middle" fill="#4a6a8f" font-size="10">VLM · Azure</text>
  <rect x="610" y="156" width="140" height="56" rx="8" fill="#1a1a2e" stroke="#334155" stroke-width="0.5"/>
  <text x="680" y="176" text-anchor="middle" fill="#64748b" font-size="10">Published papers only</text>
  <text x="680" y="194" text-anchor="middle" fill="#64748b" font-size="10">No customer data</text>
  <rect x="610" y="230" width="140" height="32" rx="6" fill="#1a1a2e" stroke="#334155" stroke-width="0.5"/>
  <text x="680" y="250" text-anchor="middle" fill="#475569" font-size="9">Replaceable with Qwen2-VL 7B</text>
  <text x="565" y="72" text-anchor="middle" fill="#475569" font-size="9">PDF only →</text>
</svg>
